# xmcd
#
# Track frame offsets: 
#        150
#        15243
#        32609
#        50006
#        65000
#        81135
#        96141
#        112545
#        130217
#        146018
#        161437
#
# Disc length: 2345 seconds
#
# Revision: 0
# Processed by: cddbd v1.5.2PL0 Copyright (c) Steve Scherf et al.
# Submitted via: ExactAudioCopy v0.95b3
#
DISCID=8309270b
DTITLE=George Strait - Icon 2 [CD2]
DYEAR=2011
DGENRE=Country
TTITLE0=Carried Away
TTITLE1=One Night At A Time
TTITLE2=Carrying Your Love With Me
TTITLE3=I Just Want To Dance With You
TTITLE4=Write This Down
TTITLE5=The Best Day 
TTITLE6=Living And Living Well
TTITLE7=I Hate Everything
TTITLE8=Give It Away
TTITLE9=I Saw God Today
TTITLE10=River Of Love
EXTD=
EXTT0=
EXTT1=
EXTT2=
EXTT3=
EXTT4=
EXTT5=
EXTT6=
EXTT7=
EXTT8=
EXTT9=
EXTT10=
PLAYORDER=
